<?xml version="1.0" encoding="UTF-8"?>
<svg version="1.1" xmlns="http://www.w3.org/2000/svg" width="512" height="512">
<path d="M0 0 C0.92320038 0.00215515 1.84640076 0.0043103 2.7975769 0.00653076 C16.84184242 0.05905652 30.57195364 0.49622308 44.375 3.3125 C45.36097168 3.51117676 46.34694336 3.70985352 47.36279297 3.91455078 C102.86994137 15.46232125 155.79473459 45.67163499 190.375 91.3125 C190.78492188 91.84069336 191.19484375 92.36888672 191.6171875 92.91308594 C216.49420916 125.02137204 233.07587608 163.16577908 239.375 203.3125 C239.55828857 204.47096436 239.74157715 205.62942871 239.93041992 206.82299805 C241.52150888 218.01288024 241.73363899 229.08476368 241.6875 240.375 C241.68534485 241.32437439 241.6831897 242.27374878 241.68096924 243.25189209 C241.6292473 257.4568888 241.24045393 271.3533884 238.375 285.3125 C238.07698486 286.78928223 238.07698486 286.78928223 237.77294922 288.29589844 C230.2151719 324.62984214 215.50774267 359.12833485 192.375 388.3125 C191.41013672 389.56546875 191.41013672 389.56546875 190.42578125 390.84375 C185.1029524 397.66733587 179.32565622 404.0388936 173.375 410.3125 C172.90046387 410.81571777 172.42592773 411.31893555 171.93701172 411.83740234 C164.87356152 419.27903794 157.38259367 425.80807505 149.17382812 431.95800781 C147.39807817 433.29512246 145.64379577 434.65690877 143.890625 436.0234375 C133.67782614 443.87413071 122.72335338 450.24748079 111.375 456.3125 C110.61268066 456.72242188 109.85036133 457.13234375 109.06494141 457.5546875 C75.8149814 475.13461756 38.11523749 482.78251529 0.75 482.625 C-0.17320038 482.62284485 -1.09640076 482.6206897 -2.0475769 482.61846924 C-16.09184242 482.56594348 -29.82195364 482.12877692 -43.625 479.3125 C-45.10395752 479.01448486 -45.10395752 479.01448486 -46.61279297 478.71044922 C-82.94479745 471.15189756 -117.44229363 456.44408637 -146.625 433.3125 C-147.4603125 432.66925781 -148.295625 432.02601563 -149.15625 431.36328125 C-155.97983587 426.0404524 -162.3513936 420.26315622 -168.625 414.3125 C-169.12821777 413.83796387 -169.63143555 413.36342773 -170.14990234 412.87451172 C-177.59153794 405.81106152 -184.12057505 398.32009367 -190.27050781 390.11132812 C-191.60762246 388.33557817 -192.96940877 386.58129577 -194.3359375 384.828125 C-202.18663071 374.61532614 -208.55998079 363.66085338 -214.625 352.3125 C-215.23988281 351.169021 -215.23988281 351.169021 -215.8671875 350.00244141 C-227.36919119 328.24802252 -234.82004006 303.56764101 -238.625 279.3125 C-238.80756348 278.15693604 -238.99012695 277.00137207 -239.17822266 275.81079102 C-240.77855387 264.54078263 -241.02416633 253.3717251 -241 242 C-240.99945618 241.03405914 -240.99891235 240.06811829 -240.99835205 239.07290649 C-240.93621469 214.99418132 -237.58294263 192.40215191 -230.625 169.3125 C-230.25665039 168.0757251 -230.25665039 168.0757251 -229.88085938 166.81396484 C-221.40137516 139.00953473 -207.08159227 112.73508742 -188.625 90.3125 C-188.1825293 89.76851563 -187.74005859 89.22453125 -187.28417969 88.6640625 C-176.09707556 74.97779558 -163.73613036 62.00394139 -149.625 51.3125 C-149.09680664 50.90257812 -148.56861328 50.49265625 -148.02441406 50.0703125 C-105.45888825 17.09117731 -53.69950689 -0.22637333 0 0 Z " fill="#0FE0C1" transform="translate(255.625,14.6875)"/>
<path d="M0 0 C22.50456391 -0.07001747 45.00910991 -0.12295251 67.51376057 -0.15543652 C77.96257984 -0.17091892 88.41133153 -0.19203462 98.86010742 -0.22631836 C107.96508315 -0.25617873 117.07000994 -0.27556501 126.17503327 -0.28226548 C130.99805552 -0.28618345 135.82093772 -0.29541963 140.64391518 -0.31719017 C145.18040487 -0.33750227 149.71669639 -0.34384454 154.25322723 -0.33932304 C155.92097487 -0.34015062 157.5887289 -0.34614765 159.2564373 -0.35761642 C161.52836669 -0.37247834 163.79954164 -0.36897719 166.07148743 -0.36076355 C167.34448354 -0.36352893 168.61747965 -0.36629431 169.9290514 -0.36914349 C173 0 173 0 174.66833907 1.21257848 C176.43267776 3.58076161 176.37592058 5.0278978 176.37752342 7.96788788 C176.38534666 8.99961262 176.39316991 10.03133737 176.40123022 11.0943265 C176.39119197 12.79989379 176.39119197 12.79989379 176.38095093 14.53991699 C176.3856309 15.74501152 176.39031087 16.95010604 176.39513266 18.19171858 C176.40505175 21.54279035 176.40145043 24.89336008 176.39217401 28.24440169 C176.38540378 31.8559099 176.39585464 35.4673733 176.40411377 39.07887268 C176.41747504 46.15616356 176.41456275 53.23335915 176.40587585 60.31065381 C176.3991091 66.06094657 176.3981782 71.81121258 176.4014473 77.56150818 C176.401907 78.37896711 176.40236669 79.19642603 176.40284032 80.03865644 C176.40379947 81.69914966 176.40477211 83.35964286 176.4057581 85.02013606 C176.414319 100.60178586 176.40446689 116.18338276 176.388357 131.76502389 C176.37495318 145.14366872 176.37728107 158.52223548 176.39111328 171.90087891 C176.40715674 187.42560694 176.41349496 202.95028858 176.40427649 218.47502375 C176.40332081 220.1295131 176.4023777 221.78400246 176.4014473 223.43849182 C176.40098447 224.25259725 176.40052164 225.06670268 176.40004479 225.90547797 C176.39745119 231.6508994 176.40183384 237.39629149 176.40888596 243.14170837 C176.41728747 250.14055107 176.41504934 257.13929279 176.39904372 264.13812387 C176.39114273 267.71114307 176.38810028 271.28399373 176.39799118 274.8570118 C176.40853637 278.72479815 176.3959714 282.59230667 176.38095093 286.46008301 C176.38764309 287.59712787 176.39433526 288.73417274 176.40123022 289.9056735 C176.39340697 290.93739825 176.38558373 291.96912299 176.37752342 293.03211212 C176.37679284 294.37217402 176.37679284 294.37217402 176.37604749 295.73930788 C176 298 176 298 174.72735655 299.78689778 C172.63243121 301.25813924 171.52941986 301.37577305 168.98477173 301.37752342 C168.16553411 301.38534666 167.3462965 301.39316991 166.50223351 301.40123022 C165.60253649 301.39453805 164.70283947 301.38784589 163.77587891 301.38095093 C162.81988108 301.3856309 161.86388325 301.39031087 160.87891579 301.39513266 C157.66132541 301.40714101 154.44415637 301.39760256 151.2265625 301.38818359 C148.9255956 301.3922467 146.62463066 301.3975871 144.32366943 301.40411377 C138.06346632 301.41782422 131.80341105 301.41247331 125.54320526 301.40297651 C119.0022694 301.39539922 112.46134649 301.40242014 105.92041016 301.40713501 C94.23018186 301.41354904 82.54001594 301.40360553 70.84979844 301.388357 C60.24553532 301.37495331 49.64137072 301.37728126 39.03710938 301.39111328 C26.72937698 301.40715972 14.42170742 301.41314821 2.11396599 301.40427649 C-4.40359997 301.39959114 -10.92109803 301.39899875 -17.43865967 301.40888596 C-23.56504852 301.41752999 -29.69125071 301.41158062 -35.81761932 301.39420319 C-38.0707137 301.39022462 -40.32382369 301.39139564 -42.57691193 301.39799118 C-45.64344886 301.40614265 -48.70938092 301.3959626 -51.77587891 301.38095093 C-52.67557592 301.38764309 -53.57527294 301.39433526 -54.50223351 301.40123022 C-55.32147112 301.39340697 -56.14070873 301.38558373 -56.98477173 301.37752342 C-58.04687835 301.37679284 -58.04687835 301.37679284 -59.13044167 301.37604749 C-61.62523156 300.87423941 -62.50075635 300.03522529 -64 298 C-64.37259549 296.13340169 -64.37259549 296.13340169 -64.36914349 293.99200916 C-64.37511663 293.17440485 -64.38108978 292.35680053 -64.38724393 291.51442033 C-64.3785054 290.6165679 -64.36976688 289.71871547 -64.36076355 288.7936554 C-64.36332682 287.83962442 -64.3658901 286.88559345 -64.36853105 285.90265244 C-64.37348969 282.69184939 -64.35694157 279.48151201 -64.34057617 276.27075195 C-64.33973035 273.97477225 -64.34020416 271.67879173 -64.34190369 269.3828125 C-64.34276681 263.13725096 -64.32508962 256.89186117 -64.30418181 250.64633965 C-64.2854679 244.12403238 -64.28366875 237.60172146 -64.28010559 231.07939148 C-64.27183126 220.12801032 -64.25307407 209.17669281 -64.22631836 198.2253418 C-64.19878689 186.94474606 -64.17754886 175.66416747 -64.16479492 164.38354492 C-64.16400675 163.68836312 -64.16321858 162.99318132 -64.16240653 162.27693341 C-64.15849145 158.78945682 -64.15470032 155.30198011 -64.15097082 151.81450331 C-64.11986394 122.87629371 -64.06679576 93.93814837 -64 65 C-63.24022858 64.99191315 -62.48045715 64.98382629 -61.69766235 64.97549438 C-54.54608567 64.89763273 -47.3947155 64.81036814 -40.24338722 64.71247292 C-36.56659359 64.66247448 -32.88982918 64.61614507 -29.21289062 64.578125 C-25.66606297 64.54131654 -22.11947779 64.49496933 -18.5728569 64.44193649 C-17.2180849 64.42336878 -15.86326087 64.40826962 -14.50841141 64.39665604 C-12.61439144 64.37983491 -10.72050412 64.34966384 -8.82666016 64.31884766 C-7.74744293 64.30552399 -6.66822571 64.29220032 -5.55630493 64.2784729 C-2.8344136 64.25199493 -2.8344136 64.25199493 -1 62 C-0.66767316 59.28965362 -0.66767316 59.28965362 -0.68115234 56.08154297 C-0.66128265 54.84040741 -0.64141296 53.59927185 -0.62094116 52.32052612 C-0.60906389 50.96108173 -0.59740108 49.60163545 -0.5859375 48.2421875 C-0.56723271 46.85497882 -0.54765981 45.4677816 -0.5272522 44.08059692 C-0.47585188 40.42774196 -0.43626875 36.77485006 -0.39910889 33.12182617 C-0.35911852 29.39492603 -0.30800361 25.66818051 -0.2578125 21.94140625 C-0.16095981 14.62771012 -0.07658525 7.3139394 0 0 Z " fill="#FEFEFE" transform="translate(200,98)"/>
<path d="M0 0 C0.92320038 0.00215515 1.84640076 0.0043103 2.7975769 0.00653076 C16.84184242 0.05905652 30.57195364 0.49622308 44.375 3.3125 C45.36097168 3.51117676 46.34694336 3.70985352 47.36279297 3.91455078 C102.79827266 15.44741121 155.8922835 45.64788811 190.375 91.3125 C190.82746094 91.90981934 191.27992188 92.50713867 191.74609375 93.12255859 C193.23531428 95.09617082 194.71400594 97.07712215 196.1875 99.0625 C196.64423096 99.67681885 197.10096191 100.2911377 197.5715332 100.92407227 C200.4851173 104.9108274 202.99501379 108.98525235 205.375 113.3125 C197.88008012 124.93171937 189.84222396 135.85413988 180.46484375 146.0390625 C178.51628585 148.15880212 176.62742667 150.31733469 174.75 152.5 C169.05976787 158.99569878 162.98244222 164.59318321 156.2421875 170 C154.41402199 171.47448772 152.60433417 172.97239735 150.8203125 174.5 C143.38166928 180.83076018 135.35884363 186.03752918 127.1015625 191.21850586 C125.51092869 192.22637211 123.9417996 193.26796693 122.375 194.3125 C122.06803948 196.8138359 121.95926387 199.07111081 121.97627258 201.57632446 C121.96630234 202.71207352 121.96630234 202.71207352 121.95613068 203.870767 C121.9373997 206.42130348 121.94011267 208.97137501 121.94262695 211.52197266 C121.93361593 213.34491138 121.92329035 215.16784401 121.91174316 216.99076843 C121.88406944 221.95125141 121.87487463 226.91161977 121.86888909 231.87216997 C121.85953231 237.05190135 121.83333123 242.23154619 121.80888367 247.41122437 C121.76514053 257.22490522 121.73664163 267.03856935 121.71356028 276.85231817 C121.6865504 288.02269737 121.64263638 299.19298984 121.59727156 310.36330724 C121.50431341 333.34632453 121.43268392 356.32936903 121.375 379.3125 C121.045 379.3125 120.715 379.3125 120.375 379.3125 C120.37364347 378.69328033 120.37228694 378.07406066 120.37088931 377.43607676 C120.29031018 340.76909326 120.1993849 304.10214906 120.09494839 267.43522546 C120.08242891 263.03656979 120.06999623 258.63791388 120.05761719 254.23925781 C120.0539182 252.92566955 120.0539182 252.92566955 120.05014448 251.58554415 C120.01037682 237.38964689 119.97764725 223.19374163 119.94750018 208.99782105 C119.91643065 194.44096753 119.8778407 179.88414809 119.83220994 165.32733285 C119.80427235 156.33868042 119.78226228 147.35005304 119.76773749 138.36136876 C119.75722825 132.20480222 119.73944105 126.04828407 119.71583296 119.89175393 C119.70241255 116.33512438 119.69229454 112.7785629 119.69078636 109.22190666 C119.68907096 105.37334533 119.67207777 101.52494097 119.6534729 97.67642212 C119.656375 95.97508887 119.656375 95.97508887 119.65933573 94.23938525 C119.65187024 93.21476825 119.64440475 92.19015125 119.63671303 91.13448524 C119.63443471 90.24518023 119.63215638 89.35587522 119.62980902 88.43962157 C119.57140696 86.09691768 119.57140696 86.09691768 117.375 84.3125 C114.27946554 83.99603159 114.27946554 83.99603159 110.56674194 84.0340271 C109.50449683 84.0253385 109.50449683 84.0253385 108.42079222 84.01647437 C106.03617929 83.99940244 103.65175905 83.99659175 101.26708984 83.99365234 C99.56237815 83.98435911 97.85767102 83.97419135 96.15296936 83.96321106 C91.51481569 83.93582871 86.87669253 83.92073735 82.23847914 83.90778303 C77.39508519 83.89218839 72.55175388 83.86538657 67.70840454 83.8397522 C58.53221751 83.79289927 49.35601877 83.75618676 40.17977297 83.72307932 C29.73490483 83.68490386 19.29009949 83.63548178 8.84528422 83.58509517 C-12.64476418 83.48167847 -34.13485232 83.39244983 -55.625 83.3125 C-55.61500725 84.46761833 -55.61500725 84.46761833 -55.60481262 85.64607239 C-55.54472371 92.90017783 -55.49903711 100.15416275 -55.46956348 107.40845203 C-55.45390141 111.13805055 -55.43265371 114.86744358 -55.39868164 118.59692383 C-55.36610681 122.19549774 -55.34815106 125.79387389 -55.34036827 129.39258385 C-55.33482132 130.76614178 -55.32398948 132.13968878 -55.30780983 133.51316261 C-55.28606324 135.43550707 -55.28477483 137.35805015 -55.28442383 139.28051758 C-55.27443108 140.92265984 -55.27443108 140.92265984 -55.26423645 142.59797668 C-55.625 145.3125 -55.625 145.3125 -58.625 148.3125 C-78.755 148.3125 -98.885 148.3125 -119.625 148.3125 C-119.625 224.5425 -119.625 300.7725 -119.625 379.3125 C-119.955 379.3125 -120.285 379.3125 -120.625 379.3125 C-120.61079608 378.37196463 -120.59659216 377.43142925 -120.58195782 376.46239281 C-120.24053699 353.53358547 -120.0210848 330.60605234 -119.92809582 307.67485619 C-119.88032664 296.58489441 -119.79354007 285.49784843 -119.61352539 274.40917969 C-119.4566437 264.73928255 -119.37436756 255.07205294 -119.38010865 245.40083563 C-119.38058191 240.28265121 -119.34478257 235.17074501 -119.21947289 230.05396652 C-117.78437892 209.85950335 -117.78437892 209.85950335 -123.70389175 191.25296783 C-128.55970899 186.52390104 -133.94742937 183.70818001 -140.23204994 181.29961014 C-143.44327313 179.9749561 -145.68422032 178.25125436 -148.3125 176 C-149.03566406 175.39671875 -149.75882813 174.7934375 -150.50390625 174.171875 C-153.77843807 171.30138302 -157.02918083 168.40764878 -160.24609375 165.47265625 C-162.40771952 163.50980067 -164.60026262 161.5928374 -166.8125 159.6875 C-174.23576191 153.18472256 -180.52170412 146.06285568 -186.625 138.3125 C-187.1499707 137.64798828 -187.67494141 136.98347656 -188.21582031 136.29882812 C-189.94452727 134.10190899 -191.66140909 131.89622517 -193.375 129.6875 C-193.91785645 128.99543457 -194.46071289 128.30336914 -195.02001953 127.59033203 C-198.74574248 122.74517528 -201.79753407 117.72891379 -204.625 112.3125 C-188.99736317 89.72067563 -171.52045982 68.1551614 -149.625 51.3125 C-149.09100586 50.89677734 -148.55701172 50.48105469 -148.00683594 50.05273438 C-105.44307568 17.08596653 -53.69028693 -0.22633446 0 0 Z " fill="#65F9DD" transform="translate(255.625,14.6875)"/>
<path d="M0 0 C1.00676188 2.35443888 1.6975874 4.44420757 2.33203125 6.90234375 C2.52964554 7.60791916 2.72725983 8.31349457 2.93086243 9.04045105 C3.35333745 10.55261683 3.76849708 12.06684173 4.17706299 13.58282471 C5.23112953 17.48877353 6.33923817 21.37916416 7.44921875 25.26953125 C7.66562012 26.0312262 7.88202148 26.79292114 8.10498047 27.57769775 C10.5104156 35.94562337 13.56086158 44.00571136 17 52 C19.22796944 48.65804584 19.99386848 45.60549038 20.8125 41.75 C21.10769531 40.46609375 21.40289062 39.1821875 21.70703125 37.859375 C22.06474167 33.14713646 21.15133343 31.12116479 19 27 C20.65 25.68 22.3 24.36 24 23 C28.75 24.875 28.75 24.875 31 26 C30.45573661 28.3584747 29.82483598 30.39766966 28.84375 32.625 C27.73321362 37.06714551 28.61885058 40.0603998 29.875 44.375 C30.07480469 45.11105469 30.27460938 45.84710938 30.48046875 46.60546875 C30.97201218 48.40779466 31.48396332 50.20453355 32 52 C34.53596687 48.1960497 35.99513556 44.2568734 37.625 40 C37.97183838 39.09531982 38.31867676 38.19063965 38.67602539 37.25854492 C42.82825029 26.15575512 46.05647604 14.77277275 49.27905273 3.37231445 C50 1 50 1 51 -1 C61.93061864 0.34888485 71.88759501 5.54338508 78.8125 14.2890625 C85.85640772 24.00378523 89.33140752 33.56360849 89.265625 45.5859375 C89.26753845 46.36893219 89.2694519 47.15192688 89.27142334 47.95864868 C89.27277394 49.59727301 89.2691569 51.23590844 89.26074219 52.87451172 C89.24993883 55.38923769 89.26071967 57.9032634 89.2734375 60.41796875 C89.2721174 62.01562658 89.26955812 63.61328397 89.265625 65.2109375 C89.26967346 65.96297455 89.27372192 66.7150116 89.27789307 67.48983765 C89.22998118 72.77001882 89.22998118 72.77001882 87 75 C84.82293701 75.25168228 84.82293701 75.25168228 82.06542969 75.25396729 C80.50060852 75.26242676 80.50060852 75.26242676 78.9041748 75.27105713 C77.75501587 75.26700867 76.60585693 75.26296021 75.421875 75.25878906 C74.21535278 75.2622937 73.00883057 75.26579834 71.76574707 75.26940918 C68.4516998 75.27671811 65.13790129 75.27498427 61.8238678 75.26865101 C58.36011412 75.263597 54.89637127 75.26828079 51.43261719 75.27142334 C45.6152149 75.27506474 39.79786334 75.27025935 33.98046875 75.26074219 C27.24918426 75.24985727 20.51802091 75.25338273 13.78673935 75.264395 C8.01345658 75.27346294 2.24021034 75.27475558 -3.53307724 75.26951766 C-6.98386369 75.26639523 -10.43459316 75.26599605 -13.88537598 75.27259064 C-17.73092378 75.27942594 -21.57633524 75.26995937 -25.421875 75.25878906 C-27.1456134 75.26486176 -27.1456134 75.26486176 -28.9041748 75.27105713 C-29.94738892 75.26541748 -30.99060303 75.25977783 -32.06542969 75.25396729 C-32.9754071 75.25321323 -33.88538452 75.25245918 -34.82293701 75.25168228 C-37 75 -37 75 -39 73 C-39.22486594 70.42613536 -39.32814964 67.96331991 -39.3359375 65.38671875 C-39.3425943 64.62132278 -39.3492511 63.85592682 -39.35610962 63.06733704 C-39.36625361 61.43904013 -39.3709261 59.81070151 -39.37060547 58.18237305 C-39.37491673 55.73477289 -39.41103821 53.28907005 -39.44921875 50.84179688 C-39.55159561 36.76403675 -37.20719983 24.19473189 -28 13 C-21.80320249 6.97893257 -9.52380166 -4.47953803 0 0 Z " fill="#333C5B" transform="translate(231,243)"/>
<path d="M0 0 C0 1.65 0 3.3 0 5 C1.299375 4.979375 2.59875 4.95875 3.9375 4.9375 C5.29165633 4.91600546 6.64756083 4.92851801 8 5 C9 6 9 6 9.25 9.125 C9 13 9 13 7.4375 16.625 C5.87986792 20.28204923 5.77821599 21.33464796 7 25 C7.33644531 25.78890625 7.67289062 26.5778125 8.01953125 27.390625 C9.71511893 33.63254938 9.43729267 40.06135507 9.56640625 46.49804688 C9.59605469 47.54412109 9.62570312 48.59019531 9.65625 49.66796875 C9.68428711 51.09532349 9.68428711 51.09532349 9.71289062 52.55151367 C9.8420714 55.25496567 9.8420714 55.25496567 12 58 C11.8180082 61.39718024 11.66248361 64.00627459 9.75 66.875 C7.54832896 68.29035995 5.57531492 68.65198447 3 69 C3.0825 70.093125 3.165 71.18625 3.25 72.3125 C3.22827038 78.44025283 1.46235719 85.11394543 -2.56640625 89.8359375 C-3.10136719 90.36445313 -3.63632812 90.89296875 -4.1875 91.4375 C-7.84589808 95.23308801 -7.61214115 99.05282449 -7.80859375 104.12890625 C-8.15795139 109.36927085 -9.91188543 112.70602592 -13.3125 116.75 C-18.72515158 121.28152226 -23.1729203 122.69221435 -30.1796875 122.47265625 C-35.77417741 121.53507553 -39.88963656 118.63064695 -43.41015625 114.2421875 C-45.78293404 110.17699832 -46.13144885 106.72748786 -46.25 102.0625 C-46.54649213 95.8595725 -48.76981848 93.3514088 -53.0546875 89.07421875 C-58.0239051 83.77571565 -58.32665993 77.90010436 -58.10546875 70.90625 C-58.07066406 70.2771875 -58.03585938 69.648125 -58 69 C-59.11375 68.731875 -60.2275 68.46375 -61.375 68.1875 C-65 67 -65 67 -67 64 C-67.25 60.4375 -67.25 60.4375 -67 57 C-66.34 56.34 -65.68 55.68 -65 55 C-64.72692739 52.38033408 -64.72692739 52.38033408 -64.796875 49.3203125 C-64.78527344 48.16273438 -64.77367187 47.00515625 -64.76171875 45.8125 C-64.75403039 43.39322877 -64.76133514 40.97385367 -64.78515625 38.5546875 C-64.64913754 29.05430385 -62.61129429 20.69713748 -55.77050781 13.72900391 C-46.39809178 5.66819884 -36.16656316 5.56769255 -24.32617188 5.56054688 C-15.55111941 5.4050939 -8.06255503 0 0 0 Z " fill="#FEBFA3" transform="translate(283,140)"/>
<path d="M0 0 C3.46056769 -0.00194499 6.92111974 -0.00705101 10.38168335 -0.01256943 C34.3382732 -0.0408483 58.25778476 0.20679708 82.19442749 1.23630142 C83.63019638 1.29757501 83.63019638 1.29757501 85.0949707 1.36008644 C137.58153161 3.65716092 137.58153161 3.65716092 152.52255249 9.31052017 C152.19255249 10.30052017 151.86255249 11.29052017 151.52255249 12.31052017 C133.26489173 20.31313012 107.7922778 18.55104331 88.08505249 19.38864517 C86.56121917 19.45374251 86.56121917 19.45374251 85.00660133 19.52015495 C58.83945712 20.60531271 32.67580572 20.57711255 6.49081421 20.50613785 C1.40571383 20.49521963 -3.67936001 20.49567296 -8.7644701 20.4962759 C-13.77094751 20.49600108 -18.7774084 20.49047355 -23.78388023 20.48327446 C-26.12003138 20.48015868 -28.45618432 20.47813765 -30.79233742 20.47738075 C-52.47498183 20.46261123 -74.15289361 19.89535456 -95.78994751 18.43552017 C-97.02559448 18.35237564 -98.26124146 18.26923111 -99.53433228 18.18356705 C-129.36672881 16.04042957 -129.36672881 16.04042957 -139.47744751 12.31052017 C-139.80744751 11.32052017 -140.13744751 10.33052017 -140.47744751 9.31052017 C-133.67870599 6.34562826 -127.23456037 5.44977031 -119.88369751 4.72848892 C-118.6860376 4.60451233 -117.48837769 4.48053574 -116.25442505 4.35280228 C-112.66346186 3.98890764 -109.07128677 3.64471971 -105.47744751 3.31052017 C-104.51113403 3.22030594 -103.54482056 3.13009171 -102.54922485 3.03714371 C-96.03172246 2.44899538 -89.51030773 2.00130732 -82.97744751 1.62302017 C-81.89946899 1.56014816 -80.82149048 1.49727615 -79.71084595 1.43249893 C-53.16365116 -0.03352551 -26.57971387 0.01142974 0 0 Z " fill="#0CB49B" transform="translate(249.47744750976563,415.68947982788086)"/>
<path d="M0 0 C1.22924805 2.85375977 1.22924805 2.85375977 2.26171875 6.69140625 C2.453638 7.37998718 2.64555725 8.06856812 2.84329224 8.77801514 C3.25625245 10.26226408 3.66203808 11.74852384 4.06143188 13.23648071 C5.11289751 17.14297149 6.2229198 21.03254605 7.3359375 24.921875 C7.5578627 25.69972855 7.7797879 26.47758209 8.00843811 27.27900696 C11.03393722 37.75381702 14.96558463 47.87904047 19 58 C20.02511368 60.58170409 21.04564456 63.16501637 22.0625 65.75 C22.44535156 66.69359375 22.82820313 67.6371875 23.22265625 68.609375 C24 71 24 71 24 75 C16.08114422 75.04628946 8.16234474 75.08185182 0.24338722 75.10362434 C-3.4334935 75.11407274 -7.11028183 75.12825102 -10.78710938 75.15087891 C-14.33379655 75.17256991 -17.88039472 75.18456067 -21.4271431 75.18975449 C-22.78197252 75.193457 -24.13679694 75.20068689 -25.49158859 75.21146011 C-27.38545757 75.22592448 -29.27941564 75.22681649 -31.17333984 75.22705078 C-32.25255707 75.231492 -33.33177429 75.23593323 -34.44369507 75.24050903 C-37 75 -37 75 -39 73 C-39.22486594 70.42613536 -39.32814964 67.96331991 -39.3359375 65.38671875 C-39.3425943 64.62132278 -39.3492511 63.85592682 -39.35610962 63.06733704 C-39.36625361 61.43904013 -39.3709261 59.81070151 -39.37060547 58.18237305 C-39.37491673 55.73477289 -39.41103821 53.28907005 -39.44921875 50.84179688 C-39.55159561 36.76403675 -37.20719983 24.19473189 -28 13 C-21.77824068 6.95467863 -9.55955868 -4.44324088 0 0 Z " fill="#333C5B" transform="translate(231,243)"/>
<path d="M0 0 C0.06948567 7.90156605 0.12280364 15.80300463 0.15543652 23.70480061 C0.17109805 27.37386676 0.19234475 31.04272401 0.22631836 34.71166992 C0.25889514 38.25188947 0.27684934 41.79190799 0.28463173 45.33226585 C0.29287924 47.34147655 0.31630137 49.35060628 0.33988953 51.35969543 C0.34011612 52.58073471 0.34034271 53.80177399 0.34057617 55.05981445 C0.35056892 56.67530937 0.35056892 56.67530937 0.36076355 58.32344055 C0 61 0 61 -1.15002441 62.84997559 C-3.80450237 64.50011329 -5.82606026 64.3598388 -8.94018555 64.34057617 C-10.16122482 64.34034958 -11.3822641 64.34012299 -12.64030457 64.33988953 C-14.61852959 64.31666374 -14.61852959 64.31666374 -16.63671875 64.29296875 C-18.00006138 64.28737243 -19.36341004 64.2831025 -20.72676086 64.28010559 C-24.31243592 64.26865949 -27.89774554 64.23919486 -31.48327637 64.20599365 C-35.1430975 64.17528739 -38.80297777 64.1615991 -42.46289062 64.14648438 C-49.64209356 64.11432449 -56.82099554 64.06313153 -64 64 C-60.20497401 59.46942518 -56.28897393 55.14295723 -52.10229492 50.97290039 C-51.26945984 50.13743683 -51.26945984 50.13743683 -50.4197998 49.28509521 C-48.60917299 47.47011552 -46.79497142 45.65876047 -44.98046875 43.84765625 C-43.71333965 42.5798528 -42.44635897 41.311901 -41.17951965 40.04380798 C-38.53772301 37.40054378 -35.89414263 34.7590803 -33.24926758 32.11889648 C-29.8516735 28.72703432 -26.45863565 25.33065516 -23.06688976 21.93294621 C-20.45828706 19.32074227 -17.84732268 16.71090946 -15.2356205 14.10180473 C-13.98250141 12.84935432 -12.73012912 11.59615626 -11.47850609 10.34221077 C-9.73831485 8.59949644 -7.99497937 6.85999162 -6.25073242 5.12133789 C-5.4707766 4.33834572 -5.4707766 4.33834572 -4.67506409 3.53953552 C-1.11426964 0 -1.11426964 0 0 0 Z " fill="#109CE7" transform="translate(200,99)"/>
<path d="M0 0 C0 1.65 0 3.3 0 5 C1.299375 4.979375 2.59875 4.95875 3.9375 4.9375 C5.29165633 4.91600546 6.64756083 4.92851801 8 5 C9 6 9 6 9.25 9.125 C9 13 9 13 7.4375 16.625 C5.91126198 20.20834144 5.80027985 21.40083955 7 25 C8.0592918 28.17787541 8.11458939 30.42588943 8.09765625 33.76171875 C8.09282227 35.43911133 8.09282227 35.43911133 8.08789062 37.15039062 C8.07532227 38.90125977 8.07532227 38.90125977 8.0625 40.6875 C8.05798828 41.86634766 8.05347656 43.04519531 8.04882812 44.25976562 C8.03703273 47.17322789 8.0205727 50.08658863 8 53 C6.35 53 4.7 53 3 53 C2.94392578 51.53240234 2.94392578 51.53240234 2.88671875 50.03515625 C2.51143618 42.55158033 1.83002442 36.01353877 -1 29 C-1.59634247 29.35273483 -2.19268494 29.70546967 -2.80709839 30.06889343 C-9.32604088 33.66148568 -14.4356455 34.73816781 -21.8203125 34.70703125 C-22.80498505 34.72215256 -23.78965759 34.73727386 -24.8041687 34.75285339 C-27.91135109 34.79541986 -31.01755624 34.80453838 -34.125 34.8125 C-36.24742125 34.83566842 -38.36981968 34.86103858 -40.4921875 34.88867188 C-45.66154355 34.9512175 -50.83029944 34.98379504 -56 35 C-57.01087711 38.75571423 -57.31066401 42.36453038 -57.5625 46.25 C-57.68818359 48.14492187 -57.68818359 48.14492187 -57.81640625 50.078125 C-57.87699219 51.04234375 -57.93757812 52.0065625 -58 53 C-59.98 53 -61.96 53 -64 53 C-65.28410334 24.6180235 -65.28410334 24.6180235 -58 16 C-50.21474624 7.96690108 -41.7393956 5.75664828 -30.81054688 5.57617188 C-28.64910141 5.56707379 -26.48763609 5.56185132 -24.32617188 5.56054688 C-15.55111941 5.4050939 -8.06255503 0 0 0 Z " fill="#A73C17" transform="translate(283,140)"/>
<path d="M0 0 C1.0908318 0.0023229 1.0908318 0.0023229 2.2037006 0.00469273 C2.97085174 0.00242718 3.73800288 0.00016162 4.52840102 -0.00217259 C7.11871463 -0.00854148 9.70897631 -0.00768139 12.29929692 -0.00685817 C14.14839327 -0.00984786 15.997489 -0.01324994 17.8465839 -0.01703578 C22.88369174 -0.02589924 27.92078261 -0.02821487 32.95789748 -0.02885157 C37.1554804 -0.02979868 41.35305932 -0.03347468 45.5506407 -0.03702366 C55.44960888 -0.04517709 65.34856796 -0.04760708 75.2475391 -0.04689723 C85.47618862 -0.04629616 95.70478544 -0.0568518 105.93342161 -0.0726409 C114.70028197 -0.08569387 123.46712507 -0.09108208 132.23399508 -0.09044182 C137.47667185 -0.09018618 142.71930182 -0.09307377 147.96196896 -0.10361987 C152.89077687 -0.11326327 157.8194929 -0.11340604 162.74830395 -0.10610324 C164.56159304 -0.1050527 166.37488774 -0.10744785 168.18816715 -0.1134637 C170.65512485 -0.12112075 173.12176019 -0.11658101 175.58871037 -0.10883266 C176.31370084 -0.11397622 177.03869132 -0.11911978 177.78565121 -0.12441921 C182.73142607 -0.08986574 182.73142607 -0.08986574 184.95969731 2.1384055 C184.42398302 5.67411979 184.42398302 5.67411979 182.95969731 7.1384055 C180.53580022 7.24051584 178.14024458 7.2772813 175.71569401 7.27211827 C174.94854287 7.27438383 174.18139174 7.27664938 173.3909936 7.27898359 C170.80067999 7.28535248 168.21041831 7.28449239 165.6200977 7.28366917 C163.77100134 7.28665886 161.92190561 7.29006095 160.07281071 7.29384679 C155.03570287 7.30271024 149.99861201 7.30502588 144.96149713 7.30566257 C140.76391421 7.30660969 136.56633529 7.31028568 132.36875391 7.31383467 C122.46978573 7.3219881 112.57082666 7.32441809 102.67185551 7.32370824 C92.443206 7.32310716 82.21460917 7.33366281 71.985973 7.3494519 C63.21911264 7.36250488 54.45226954 7.36789308 45.68539953 7.36725283 C40.44272276 7.36699718 35.20009279 7.36988477 29.95742565 7.38043088 C25.02861774 7.39007427 20.09990171 7.39021704 15.17109066 7.38291425 C13.35780157 7.38186371 11.54450687 7.38425885 9.73122746 7.3902747 C7.26426977 7.39793175 4.79763443 7.39339201 2.33068424 7.38564366 C1.60569377 7.39078722 0.88070329 7.39593079 0.13374341 7.40123022 C-4.81203145 7.36667674 -4.81203145 7.36667674 -7.04030269 5.1384055 C-6.27008114 0.05494326 -4.94010206 0.02429563 0 0 Z " fill="#8FC8F5" transform="translate(167.04030269384384,341.8615944981575)"/>
<path d="M0 0 C2.64 0 5.28 0 8 0 C8.14695313 0.85271484 8.14695313 0.85271484 8.296875 1.72265625 C9.65444281 8.73285554 11.27123385 13.8281249 17.0625 18.4375 C22.48235278 21.12416522 28.6104261 20.95472998 34.34375 19.33984375 C38.6014504 17.50490197 41.15679167 15.29203907 43.2578125 11.015625 C44.57830287 7.42945116 45.35210236 3.75951131 46 0 C48.64 0 51.28 0 54 0 C42.51839187 38.64564506 42.51839187 38.64564506 35 57 C32.48361782 53.22542673 31.67772406 49.68236463 30.625 45.3125 C30.40972656 44.53455078 30.19445312 43.75660156 29.97265625 42.95507812 C28.6533182 37.42400708 29.18763501 34.33704781 32.06787109 29.42260742 C32.37547363 28.95314697 32.68307617 28.48368652 33 28 C30.69 27.34 28.38 26.68 26 26 C24.68 27.32 23.36 28.64 22 30 C22.52980469 30.80050781 23.05960938 31.60101563 23.60546875 32.42578125 C25.48687754 37.24787941 24.58442739 40.30187237 23.3125 45.1875 C23.12494141 45.99380859 22.93738281 46.80011719 22.74414062 47.63085938 C21.85285307 51.31546051 21.13577548 53.79633678 19 57 C12.25068541 39.64342927 6.52239773 22.35186835 1.68920898 4.36889648 C1.07977776 2.00993589 1.07977776 2.00993589 0 0 Z " fill="#CFF2FB" transform="translate(229,241)"/>
<path d="M0 0 C1.10218369 -0.00281982 2.20436737 -0.00563965 3.33995056 -0.00854492 C5.1696212 -0.00550858 5.1696212 -0.00550858 7.03625488 -0.00241089 C8.31251236 -0.00416321 9.58876984 -0.00591553 10.90370178 -0.00772095 C14.41393793 -0.01229485 17.9241448 -0.0105059 21.43438148 -0.00734186 C25.10013536 -0.00481804 28.76588666 -0.00715586 32.43164062 -0.00872803 C38.58874972 -0.01054966 44.74584683 -0.00814359 50.9029541 -0.00338745 C58.03126406 0.00205516 65.15954541 0.0002925 72.28785467 -0.00521386 C78.39739652 -0.00974518 84.50692974 -0.01039544 90.61647272 -0.00777519 C94.27011236 -0.00621252 97.92373854 -0.00601838 101.57737732 -0.00931168 C105.64832262 -0.01272451 109.71921826 -0.00800035 113.79016113 -0.00241089 C115.00994156 -0.00443512 116.22972198 -0.00645935 117.48646545 -0.00854492 C119.13974098 -0.00431519 119.13974098 -0.00431519 120.82641602 0 C122.27214367 0.00056554 122.27214367 0.00056554 123.74707794 0.0011425 C125.91320801 0.12698364 125.91320801 0.12698364 126.91320801 1.12698364 C127.03820801 3.62698364 127.03820801 3.62698364 126.91320801 6.12698364 C125.22942753 7.81076412 123.14228992 7.25667596 120.83314514 7.26069641 C119.73240662 7.2649614 118.63166809 7.26922638 117.49757385 7.27362061 C116.27936447 7.27316742 115.06115509 7.27271423 113.80603027 7.27224731 C111.8940535 7.27728523 111.8940535 7.27728523 109.94345093 7.28242493 C106.43728456 7.2912853 102.93114257 7.29360389 99.4249661 7.29424071 C96.50235577 7.29518815 93.57975118 7.29886454 90.65714306 7.30241281 C83.76422362 7.31056513 76.87131726 7.31299634 69.97839355 7.31228638 C62.85803416 7.31168539 55.73775047 7.32223957 48.61741024 7.33803004 C42.51294711 7.35108733 36.40850878 7.35647104 30.30403179 7.35583097 C26.65425041 7.35557544 23.00453628 7.35845646 19.35476875 7.36900902 C15.28638625 7.38045003 11.21817433 7.37595433 7.14978027 7.36990356 C5.32550255 7.37833282 5.32550255 7.37833282 3.46437073 7.38693237 C2.36081238 7.38273788 1.25725403 7.3785434 0.12025452 7.3742218 C-1.32409045 7.37503895 -1.32409045 7.37503895 -2.7976141 7.37587261 C-5.08679199 7.12698364 -5.08679199 7.12698364 -7.08679199 5.12698364 C-6.30831591 -0.01095852 -4.92737853 0.00192749 0 0 Z " fill="#8FC8F5" transform="translate(167.0867919921875,363.8730163574219)"/>
<path d="M0 0 C4.75 1.875 4.75 1.875 7 3 C6.45360544 5.36770976 5.81660308 7.42051618 4.83984375 9.66015625 C3.78599262 13.85105261 4.69482656 16.81408536 5.9375 20.8125 C9.21360778 32.7121428 6.3763362 40.64736402 2 52 C1.34 52 0.68 52 0 52 C-1.66222193 47.80349188 -3.26563317 43.59809178 -4.71875 39.32421875 C-4.96302734 38.60838623 -5.20730469 37.89255371 -5.45898438 37.1550293 C-6.45801902 33.17557135 -6.05967351 29.90473634 -5 26 C-4.55459896 24.12971873 -4.11109398 22.25881353 -3.69702148 20.38134766 C-3.26975756 18.46367701 -2.79992747 16.55563901 -2.328125 14.6484375 C-1.915389 10.05920625 -2.90588906 8.03271859 -5 4 C-3.35 2.68 -1.7 1.36 0 0 Z " fill="#FC3A4A" transform="translate(255,266)"/>
<path d="M0 0 C2.97 1.98 5.94 3.96 9 6 C7.56006454 13.72329019 4.94467554 20.7282249 2 28 C-0.52664155 24.21003768 -1.32362603 20.63895711 -2.375 16.25 C-2.59027344 15.46367187 -2.80554688 14.67734375 -3.02734375 13.8671875 C-4.06130522 9.51442662 -4.36818352 6.89496357 -2.1015625 2.921875 C-1.40804688 1.95765625 -0.71453125 0.9934375 0 0 Z " fill="#FCF8F9" transform="translate(262,270)"/>
<path d="M0 0 C3.15677305 2.58281431 4.22810534 5.01339108 5 9 C4.52785275 12.38981264 3.6017004 15.59960067 2.625 18.875 C2.25375 20.19371094 2.25375 20.19371094 1.875 21.5390625 C1.26500596 23.69750296 0.63977305 25.85023524 0 28 C-2.31091497 24.53362755 -3.71570542 20.93072245 -5.1875 17.0625 C-5.47302734 16.34642578 -5.75855469 15.63035156 -6.05273438 14.89257812 C-7.46947728 11.17319713 -8.37205309 8.7823494 -7 5 C-5.37109375 3.515625 -5.37109375 3.515625 -3.4375 2.25 C-2.79683594 1.82203125 -2.15617188 1.3940625 -1.49609375 0.953125 C-1.00238281 0.63859375 -0.50867188 0.3240625 0 0 Z " fill="#FCF8F9" transform="translate(249,270)"/>
<path d="M0 0 C9.24 0 18.48 0 28 0 C28 1.98 28 3.96 28 6 C18.76 6 9.52 6 0 6 C0 4.02 0 2.04 0 0 Z " fill="#20273A" transform="translate(280,281)"/>
<path d="M0 0 C1.36465267 0.00399021 2.7293066 0.01874032 4.09375 0.04296875 C4.78339844 0.04361328 5.47304688 0.04425781 6.18359375 0.04492188 C11.31263951 0.0899135 11.31263951 0.0899135 13.59375 1.23046875 C13.636471 2.8965878 13.63438832 4.5642976 13.59375 6.23046875 C12.59375 7.23046875 12.59375 7.23046875 8.77734375 7.328125 C7.19528318 7.32144964 5.61323841 7.3094875 4.03125 7.29296875 C3.22494141 7.28845703 2.41863281 7.28394531 1.58789062 7.27929688 C-0.41018756 7.26747393 -2.40822783 7.24953789 -4.40625 7.23046875 C-5.03125 4.85546875 -5.03125 4.85546875 -5.40625 2.23046875 C-3.40625 0.23046875 -3.40625 0.23046875 0 0 Z " fill="#91C9F5" transform="translate(308.40625,363.76953125)"/>
<path d="M0 0 C0 0.99 0 1.98 0 3 C-1.58074564 3.81752303 -3.16471223 4.62881997 -4.75 5.4375 C-5.63171875 5.88996094 -6.5134375 6.34242188 -7.421875 6.80859375 C-15.94524514 10.74742389 -24.16459586 9.33880944 -32.75 6.265625 C-35.32692912 4.81610237 -35.9900089 3.73156685 -37 1 C-35.865625 1.66 -34.73125 2.32 -33.5625 3 C-25.87625751 6.41069397 -16.01078301 6.4418124 -7.97265625 4.12890625 C-5.87365631 3.20017532 -3.94729718 2.20916957 -2 1 C-1.34 0.67 -0.68 0.34 0 0 Z " fill="#FFAC82" transform="translate(274,236)"/>
</svg>
