<svg version="1.1" id="Layer_1" xmlns="http://www.w3.org/2000/svg" xmlns:xlink="http://www.w3.org/1999/xlink" x="0px" y="0px"
	 width="100%" viewBox="0 0 117 118" enable-background="new 0 0 117 118" xml:space="preserve">
<path fill="#FFFFFF" opacity="1.000000" stroke="none" 
	d="
M73.000000,119.000000 
	C64.312439,119.000000 55.624874,119.000000 46.764038,118.668335 
	C45.345158,117.690964 44.161324,116.854462 42.844681,116.428093 
	C22.517174,109.845406 8.887817,96.702164 2.898006,75.958656 
	C2.764145,75.495064 1.654483,75.313248 1.000000,75.000000 
	C1.000000,65.312439 1.000000,55.624878 1.333453,45.764771 
	C2.034706,45.260639 2.626194,44.991291 2.738253,44.588547 
	C8.633956,23.399321 22.597309,10.162009 43.160160,3.327619 
	C44.244827,2.967113 45.059586,1.794529 46.000000,1.000000 
	C54.687565,1.000000 63.375126,1.000000 72.235962,1.331660 
	C73.654854,2.309035 74.838684,3.145531 76.155327,3.571901 
	C96.482834,10.154595 110.112190,23.297842 116.101997,44.041344 
	C116.235855,44.504929 117.345520,44.686749 118.000000,45.000000 
	C118.000000,54.687561 118.000000,64.375122 117.666550,74.235229 
	C116.965302,74.739357 116.373825,75.008705 116.261772,75.411453 
	C110.366066,96.600677 96.402695,109.837997 75.839844,116.672379 
	C74.755180,117.032890 73.940414,118.205467 73.000000,119.000000 
M23.025997,59.527416 
	C23.069998,59.697109 23.113997,59.866802 22.894226,60.923252 
	C23.225443,65.278770 23.556660,69.634293 23.919878,74.746994 
	C26.308121,79.108513 28.696363,83.470039 30.832048,88.418404 
	C30.446590,89.258492 29.566671,90.242569 29.762047,90.913521 
	C30.568777,93.683975 38.000370,98.906738 41.641129,99.255310 
	C51.037289,102.723526 60.453800,105.447144 70.815590,100.029762 
	C73.941750,98.362984 77.067909,96.696198 81.084061,95.016953 
	C82.743111,95.009056 84.403748,94.950584 86.060928,95.002457 
	C91.656128,95.177628 95.676430,91.853561 98.169342,87.740608 
	C100.008438,84.706360 98.754814,79.721428 104.348907,79.381561 
	C104.569809,79.368141 104.930405,78.538918 104.907913,78.106346 
	C104.615570,72.481651 104.270622,66.859612 103.891174,61.240131 
	C103.884247,61.137402 103.293030,61.074127 102.846573,60.341797 
	C102.802475,59.902050 102.758377,59.462299 102.952271,58.289829 
	C103.011993,57.522167 103.071716,56.754509 103.668983,55.495274 
	C106.311508,49.404602 104.957794,45.815365 99.296394,44.637222 
	C98.545097,43.377449 97.793800,42.117672 96.869507,40.227486 
	C95.283966,38.465187 93.698425,36.702885 92.007507,34.240513 
	C89.009705,31.490625 86.011902,28.740738 82.641136,25.451889 
	C81.083466,24.639641 79.525795,23.827393 77.550232,22.441458 
	C73.699356,21.381474 69.848480,20.321491 65.098007,19.141504 
	C62.071815,19.225351 59.045624,19.309198 55.181877,19.190598 
	C38.159325,18.901625 20.698057,34.905048 17.233974,52.815311 
	C17.087936,53.570362 18.960220,54.715778 19.998714,56.406559 
	C20.973875,57.274853 21.949036,58.143150 23.025997,59.527416 
z"/>
<path fill="#000000" opacity="1.000000" stroke="none" 
	d="
M45.531342,1.000000 
	C45.059586,1.794529 44.244827,2.967113 43.160160,3.327619 
	C22.597309,10.162009 8.633956,23.399321 2.738253,44.588547 
	C2.626194,44.991291 2.034706,45.260639 1.333453,45.296112 
	C1.000000,30.405807 1.000000,15.811616 1.000000,1.000000 
	C15.686846,1.000000 30.374765,1.000000 45.531342,1.000000 
z"/>
<path fill="#000000" opacity="1.000000" stroke="none" 
	d="
M1.000000,75.468658 
	C1.654483,75.313248 2.764145,75.495064 2.898006,75.958656 
	C8.887817,96.702164 22.517174,109.845406 42.844681,116.428093 
	C44.161324,116.854462 45.345158,117.690964 46.295387,118.668335 
	C31.074121,119.000000 16.148243,119.000000 1.000000,119.000000 
	C1.000000,104.646538 1.000000,90.291924 1.000000,75.468658 
z"/>
<path fill="#000000" opacity="1.000000" stroke="none" 
	d="
M73.468658,119.000000 
	C73.940414,118.205467 74.755180,117.032890 75.839844,116.672379 
	C96.402695,109.837997 110.366066,96.600677 116.261772,75.411453 
	C116.373825,75.008705 116.965302,74.739357 117.666550,74.703888 
	C118.000000,89.594193 118.000000,104.188385 118.000000,119.000000 
	C103.313156,119.000000 88.625237,119.000000 73.468658,119.000000 
z"/>
<path fill="#000000" opacity="1.000000" stroke="none" 
	d="
M118.000000,44.531342 
	C117.345520,44.686749 116.235855,44.504929 116.101997,44.041344 
	C110.112190,23.297842 96.482834,10.154595 76.155327,3.571901 
	C74.838684,3.145531 73.654854,2.309035 72.704620,1.331660 
	C87.925880,1.000000 102.851753,1.000000 118.000000,1.000000 
	C118.000000,15.353463 118.000000,29.708073 118.000000,44.531342 
z"/>
<path fill="#EBF2EA" opacity="1.000000" stroke="none" 
	d="
M102.974434,60.992443 
	C103.293030,61.074127 103.884247,61.137402 103.891174,61.240131 
	C104.270622,66.859612 104.615570,72.481651 104.907913,78.106346 
	C104.930405,78.538918 104.569809,79.368141 104.348907,79.381561 
	C98.754814,79.721428 100.008438,84.706360 98.169342,87.740608 
	C95.676430,91.853561 91.656128,95.177628 86.060928,95.002457 
	C84.403748,94.950584 82.743111,95.009056 80.713516,94.731491 
	C80.585609,93.687790 80.828232,92.929550 81.369247,92.010849 
	C83.790245,89.237373 85.912857,86.624359 88.328003,83.810562 
	C89.321228,81.930641 90.431572,80.297287 90.625557,78.561516 
	C90.908798,76.027199 90.533844,73.419312 90.423050,70.822159 
	C90.406647,70.801529 90.429237,70.756592 90.828339,70.740738 
	C91.688705,69.090759 92.626282,67.428314 92.531097,65.827255 
	C92.046173,57.670143 88.922104,50.519428 83.726044,44.225185 
	C82.964043,43.302139 82.578278,42.068493 82.362007,40.888969 
	C85.076584,42.894001 87.447586,44.988625 89.891029,47.447235 
	C91.645370,51.542469 93.327263,55.273720 95.044662,59.423439 
	C95.080162,67.815742 95.080162,75.789574 95.080162,84.339554 
	C96.119102,83.016441 97.624695,81.885933 98.031898,80.445023 
	C99.850655,74.009224 101.355934,67.484833 102.974434,60.992443 
z"/>
<path fill="#F7D064" opacity="1.000000" stroke="none" 
	d="
M19.892241,55.679340 
	C18.960220,54.715778 17.087936,53.570362 17.233974,52.815311 
	C20.698057,34.905048 38.159325,18.901625 55.535995,19.611296 
	C55.592995,21.966719 50.024300,22.978647 55.755108,26.020000 
	C51.550415,25.872234 47.916805,25.491117 47.789112,30.716841 
	C39.355999,33.254623 31.648388,36.307812 26.537060,44.103764 
	C24.133242,48.082855 22.012741,51.881100 19.892241,55.679340 
z"/>
<path fill="#E1EEF1" opacity="1.000000" stroke="none" 
	d="
M40.926373,99.028564 
	C38.000370,98.906738 30.568777,93.683975 29.762047,90.913521 
	C29.566671,90.242569 30.446590,89.258492 31.302620,88.174149 
	C32.457378,88.049934 33.141563,88.169975 34.029915,88.555275 
	C36.827694,90.153694 39.421310,91.486847 42.395641,92.933357 
	C48.092407,93.322914 53.530716,94.444908 58.698853,93.697868 
	C69.200577,92.179878 79.264557,77.546005 79.043617,70.957947 
	C80.436012,69.755043 81.699562,68.873932 83.007927,68.405334 
	C82.461182,75.266357 80.317909,81.078911 75.722214,86.182983 
	C70.290154,89.646446 65.144951,92.930824 59.598381,96.221581 
	C53.948090,96.511681 48.693241,96.722176 43.455605,97.145531 
	C42.494240,97.223228 39.444641,95.371223 40.926373,99.028564 
z"/>
<path fill="#3AA6B2" opacity="1.000000" stroke="none" 
	d="
M59.999752,96.215202 
	C65.144951,92.930824 70.290154,89.646446 76.074989,86.219284 
	C78.166702,88.108109 79.618782,90.139709 81.070862,92.171318 
	C80.828232,92.929550 80.585609,93.687790 80.268524,94.737717 
	C77.067909,96.696198 73.941750,98.362984 70.019539,100.022079 
	C66.528473,99.674583 63.800270,99.480164 61.165009,98.878593 
	C60.603203,98.750351 60.379318,97.141785 59.999752,96.215202 
z"/>
<path fill="#D4A741" opacity="1.000000" stroke="none" 
	d="
M95.009155,59.004974 
	C93.327263,55.273720 91.645370,51.542469 90.211746,47.299156 
	C91.855484,45.950523 93.269203,44.388588 94.642784,44.423138 
	C97.846466,44.503708 96.820213,42.401615 97.042503,40.857899 
	C97.793800,42.117672 98.545097,43.377449 99.582176,45.253330 
	C100.955788,49.241909 102.043610,52.614376 103.131439,55.986847 
	C103.071716,56.754509 103.011993,57.522167 102.479797,58.596424 
	C99.674606,58.937004 97.341881,58.970989 95.009155,59.004974 
z"/>
<path fill="#C79830" opacity="1.000000" stroke="none" 
	d="
M95.044662,59.423439 
	C97.341881,58.970989 99.674606,58.937004 102.360809,58.962784 
	C102.758377,59.462299 102.802475,59.902050 102.910507,60.667122 
	C101.355934,67.484833 99.850655,74.009224 98.031898,80.445023 
	C97.624695,81.885933 96.119102,83.016441 95.080162,84.339554 
	C95.080162,75.789574 95.080162,67.815742 95.044662,59.423439 
z"/>
<path fill="#F3CA54" opacity="1.000000" stroke="none" 
	d="
M48.088779,30.557632 
	C47.916805,25.491117 51.550415,25.872234 55.755108,26.020000 
	C50.024300,22.978647 55.592995,21.966719 55.954773,19.712521 
	C59.045624,19.309198 62.071815,19.225351 65.547974,19.563463 
	C65.258713,21.563316 64.774879,23.343378 63.722244,24.673189 
	C62.010582,26.835554 59.926781,28.703344 57.663567,30.772415 
	C56.877258,30.943497 56.427429,31.037632 55.581551,31.065514 
	C52.819931,30.852051 50.454357,30.704842 48.088779,30.557632 
z"/>
<path fill="#737188" opacity="1.000000" stroke="none" 
	d="
M33.825752,88.290016 
	C33.141563,88.169975 32.457378,88.049934 31.428898,87.880722 
	C28.696363,83.470039 26.308121,79.108513 24.249964,74.410774 
	C25.990133,75.334435 27.400219,76.594322 28.948835,77.977982 
	C29.774603,76.788551 30.397892,75.890770 31.288914,75.189499 
	C35.075790,78.719826 38.594936,82.053635 42.078773,85.788223 
	C42.017925,86.456009 41.992390,86.723007 41.600365,87.032669 
	C38.764507,87.480217 36.295128,87.885117 33.825752,88.290016 
z"/>
<path fill="#EDC254" opacity="1.000000" stroke="none" 
	d="
M58.000046,30.695467 
	C59.926781,28.703344 62.010582,26.835554 63.722244,24.673189 
	C64.774879,23.343378 65.258713,21.563316 65.997772,19.623465 
	C69.848480,20.321491 73.699356,21.381474 77.451935,22.864212 
	C74.518883,25.998220 71.684120,28.709476 68.411552,31.320772 
	C64.649178,31.045696 61.324612,30.870581 58.000046,30.695467 
z"/>
<path fill="#3E9CA7" opacity="1.000000" stroke="none" 
	d="
M59.598381,96.221581 
	C60.379318,97.141785 60.603203,98.750351 61.165009,98.878593 
	C63.800270,99.480164 66.528473,99.674583 69.658104,100.023651 
	C60.453800,105.447144 51.037289,102.723526 41.283752,99.141937 
	C39.444641,95.371223 42.494240,97.223228 43.455605,97.145531 
	C48.693241,96.722176 53.948090,96.511681 59.598381,96.221581 
z"/>
<path fill="#DDAF44" opacity="1.000000" stroke="none" 
	d="
M96.956009,40.542694 
	C96.820213,42.401615 97.846466,44.503708 94.642784,44.423138 
	C93.269203,44.388588 91.855484,45.950523 90.139297,46.935165 
	C87.447586,44.988625 85.076584,42.894001 82.354279,40.899384 
	C82.002960,40.999386 82.023384,40.985706 82.155518,40.668930 
	C82.189720,39.906681 82.091789,39.461205 82.203316,38.731606 
	C85.646149,37.278519 88.879517,36.109554 92.112885,34.940590 
	C93.698425,36.702885 95.283966,38.465187 96.956009,40.542694 
z"/>
<path fill="#E3B648" opacity="1.000000" stroke="none" 
	d="
M92.060196,34.590553 
	C88.879517,36.109554 85.646149,37.278519 81.927734,38.572937 
	C80.298584,37.735771 79.154488,36.773155 78.007492,35.421036 
	C77.664536,30.904270 79.657318,28.069662 83.014099,25.990850 
	C86.011902,28.740738 89.009705,31.490625 92.060196,34.590553 
z"/>
<path fill="#EBBD4E" opacity="1.000000" stroke="none" 
	d="
M82.827621,25.721371 
	C79.657318,28.069662 77.664536,30.904270 77.680664,35.329964 
	C74.520943,34.225842 71.685150,32.823288 68.849358,31.420734 
	C71.684120,28.709476 74.518883,25.998220 77.660889,23.151054 
	C79.525795,23.827393 81.083466,24.639641 82.827621,25.721371 
z"/>
<path fill="#7B7994" opacity="1.000000" stroke="none" 
	d="
M31.021183,74.992989 
	C30.397892,75.890770 29.774603,76.788551 28.948835,77.977982 
	C27.400219,76.594322 25.990133,75.334435 24.233963,74.032181 
	C23.556660,69.634293 23.225443,65.278770 23.397207,60.469414 
	C24.891901,60.019650 25.883614,60.023724 26.933065,60.434204 
	C28.334265,65.558067 29.677723,70.275528 31.021183,74.992989 
z"/>
<path fill="#F5F3ED" opacity="1.000000" stroke="none" 
	d="
M19.945477,56.042950 
	C22.012741,51.881100 24.133242,48.082855 26.854721,44.235432 
	C29.164373,44.045940 30.873047,43.905632 33.089535,43.723621 
	C31.544189,45.739124 30.214165,47.473797 28.670731,49.260071 
	C28.221230,49.501591 28.058039,49.741180 27.966904,50.009758 
	C27.966059,49.989075 28.000732,49.967690 27.685797,50.112236 
	C25.888639,53.175003 24.406418,56.093224 22.924194,59.011444 
	C21.949036,58.143150 20.973875,57.274853 19.945477,56.042950 
z"/>
<path fill="#EFF4EB" opacity="1.000000" stroke="none" 
	d="
M103.400208,55.741058 
	C102.043610,52.614376 100.955788,49.241909 99.809685,45.488808 
	C104.957794,45.815365 106.311508,49.404602 103.400208,55.741058 
z"/>
<path fill="#9390A5" opacity="1.000000" stroke="none" 
	d="
M22.975096,59.269432 
	C24.406418,56.093224 25.888639,53.175003 27.792007,50.537354 
	C27.767212,53.887878 27.321270,56.957840 26.875326,60.027802 
	C25.883614,60.023724 24.891901,60.019650 23.529093,60.026039 
	C23.113997,59.866802 23.069998,59.697109 22.975096,59.269432 
z"/>
<path fill="#4CC2CD" opacity="1.000000" stroke="none" 
	d="
M82.010696,40.988976 
	C82.578278,42.068493 82.964043,43.302139 83.726044,44.225185 
	C88.922104,50.519428 92.046173,57.670143 92.531097,65.827255 
	C92.626282,67.428314 91.688705,69.090759 90.717018,70.291565 
	C90.304306,68.571304 90.493736,67.283508 90.481720,65.997589 
	C90.451447,62.757214 89.960114,59.754528 85.859711,58.754234 
	C84.866982,58.689873 84.028419,58.856136 83.037842,58.678131 
	C79.935425,48.485851 74.462257,40.653713 65.210983,35.653374 
	C67.713959,35.777542 70.131531,35.964573 72.332451,36.754898 
	C75.642372,37.943455 78.800644,39.554359 82.023384,40.985706 
	C82.023384,40.985706 82.002960,40.999386 82.010696,40.988976 
z"/>
<path fill="#3EB2BC" opacity="1.000000" stroke="none" 
	d="
M83.189857,59.022404 
	C84.028419,58.856136 84.866982,58.689873 85.802933,59.168610 
	C85.600121,64.208977 85.299911,68.604332 84.850662,73.342346 
	C84.716888,75.906792 85.193741,78.251129 84.643784,80.322891 
	C83.721657,83.796707 85.677689,83.924286 88.035477,84.011353 
	C85.912857,86.624359 83.790245,89.237373 81.369247,92.010849 
	C79.618782,90.139709 78.166702,88.108109 76.361847,86.040207 
	C80.317909,81.078911 82.461182,75.266357 83.096741,68.016281 
	C83.157104,64.483963 83.173485,61.753181 83.189857,59.022404 
z"/>
<path fill="#37B7C2" opacity="1.000000" stroke="none" 
	d="
M88.328003,83.810562 
	C85.677689,83.924286 83.721657,83.796707 84.643784,80.322891 
	C85.193741,78.251129 84.716888,75.906792 85.226166,73.334808 
	C87.313614,72.270691 88.876534,71.556740 90.439445,70.842789 
	C90.533844,73.419312 90.908798,76.027199 90.625557,78.561516 
	C90.431572,80.297287 89.321228,81.930641 88.328003,83.810562 
z"/>
<path fill="#3DBCC8" opacity="1.000000" stroke="none" 
	d="
M90.423050,70.822159 
	C88.876534,71.556740 87.313614,72.270691 85.375198,72.992165 
	C85.299911,68.604332 85.600121,64.208977 85.957100,59.399239 
	C89.960114,59.754528 90.451447,62.757214 90.481720,65.997589 
	C90.493736,67.283508 90.304306,68.571304 90.317917,70.307419 
	C90.429237,70.756592 90.406647,70.801529 90.423050,70.822159 
z"/>
<path fill="#FDFDFD" opacity="1.000000" stroke="none" 
	d="
M83.037842,58.678131 
	C83.173485,61.753181 83.157104,64.483963 83.051926,67.603783 
	C81.699562,68.873932 80.436012,69.755043 78.739197,71.060043 
	C74.152824,79.279114 68.132103,85.268059 59.282848,86.508354 
	C53.721546,87.287819 47.847706,85.837440 42.114082,85.387451 
	C38.594936,82.053635 35.075790,78.719826 31.288914,75.189499 
	C29.677723,70.275528 28.334265,65.558067 26.933065,60.434204 
	C27.321270,56.957840 27.767212,53.887878 28.106943,50.392807 
	C28.000732,49.967690 27.966059,49.989075 28.207054,50.014740 
	C28.706654,49.822433 28.852015,49.545120 28.884138,49.208466 
	C30.214165,47.473797 31.544189,45.739124 33.089535,43.723621 
	C30.873047,43.905632 29.164373,44.045940 27.138039,44.054581 
	C31.648388,36.307812 39.355999,33.254623 47.789112,30.716841 
	C50.454357,30.704842 52.819931,30.852051 55.636314,31.412865 
	C57.756596,36.031105 61.250275,36.314613 65.028603,35.986263 
	C74.462257,40.653713 79.935425,48.485851 83.037842,58.678131 
z"/>
<path fill="#626077" opacity="1.000000" stroke="none" 
	d="
M42.078773,85.788223 
	C47.847706,85.837440 53.721546,87.287819 59.282848,86.508354 
	C68.132103,85.268059 74.152824,79.279114 78.610352,71.381836 
	C79.264557,77.546005 69.200577,92.179878 58.698853,93.697868 
	C53.530716,94.444908 48.092407,93.322914 42.431297,92.607948 
	C42.519981,90.431885 45.592106,88.633759 41.966850,86.990013 
	C41.992390,86.723007 42.017925,86.456009 42.078773,85.788223 
z"/>
<path fill="#69667F" opacity="1.000000" stroke="none" 
	d="
M41.600365,87.032669 
	C45.592106,88.633759 42.519981,90.431885 42.050579,92.494598 
	C39.421310,91.486847 36.827694,90.153694 34.029915,88.555275 
	C36.295128,87.885117 38.764507,87.480217 41.600365,87.032669 
z"/>
<path fill="#EBF2EA" opacity="1.000000" stroke="none" 
	d="
M65.210983,35.653374 
	C61.250275,36.314613 57.756596,36.031105 56.032360,31.479118 
	C56.427429,31.037632 56.877258,30.943497 57.663567,30.772415 
	C61.324612,30.870581 64.649178,31.045696 68.411552,31.320770 
	C71.685150,32.823288 74.520943,34.225842 77.683563,35.719467 
	C79.154488,36.773155 80.298584,37.735771 81.718262,38.857056 
	C82.091789,39.461205 82.189720,39.906681 82.155518,40.668930 
	C78.800644,39.554359 75.642372,37.943455 72.332451,36.754898 
	C70.131531,35.964573 67.713959,35.777542 65.210983,35.653374 
z"/>
<path fill="#9390A5" opacity="1.000000" stroke="none" 
	d="
M28.670731,49.260071 
	C28.852015,49.545120 28.706654,49.822433 28.207901,50.035423 
	C28.058039,49.741180 28.221230,49.501591 28.670731,49.260071 
z"/>
</svg>